<?xml version="1.0" encoding="UTF-8"?>
<svg width="752pt" height="752pt" version="1.1" viewBox="0 0 752 752" xmlns="http://www.w3.org/2000/svg">
 <g fill="#1e3989">
  <path d="m279.02 450.48-6.6172-3.3086v8.375c0.003906 4.0938 1.5156 8.043 4.2461 11.098 2.7266 3.0508 6.4844 4.9922 10.551 5.4531v-8.3789c0.011719-2.75-0.75-5.4492-2.1953-7.7891-1.4453-2.3398-3.5195-4.2266-5.9844-5.4492z"/>
  <path d="m332.94 376 4.4375-22.199h-85.543l4.4414 22.199z"/>
  <path d="m555.21 499.02c-1.0508-1.3125-1.6211-2.9414-1.6211-4.6211v-81.977c0-2.8945-0.90625-5.7148-2.5898-8.0703l-18.648-26.109v0.003906c-7.6367-10.695-19.969-17.043-33.113-17.043h-23.344c-6.1328 0-11.102 4.9688-11.102 11.098v3.6992h26.824c2.3281 0 4.5234 1.0977 5.9219 2.9609l22.199 27.75c0.95703 1.2812 1.4766 2.8398 1.4766 4.4375v68.418c-2.1719 5.8828-8.2695 6.9609-12.023 3.957l-28.746-23.367c-2.2344-1.7812-5.0078-2.7539-7.8633-2.7578h-2.2188c-6.7734-0.078126-12.441 5.1211-12.949 11.875-0.23828 4.0703 1.5156 8.0039 4.7031 10.543l29.5 23.602c0.007812 0.003906 0.011718 0.011719 0.015625 0.015625 1.7461 1.4062 2.7617 3.5234 2.7617 5.7617v14.801c0.003906 5.8867 2.3477 11.527 6.5078 15.688 4.1602 4.1641 9.8047 6.5039 15.691 6.5117 2.2461 0 4.3711 1.0195 5.7773 2.7734l23.633 29.543 35.227-46.969z"/>
  <path d="m332.34 518.07 6.6602-8.8789h-11.102c-4.6562 0.011719-9.0352 2.2031-11.84 5.9219l-6.6602 8.8789h11.102c4.6562-0.011719 9.0352-2.2031 11.84-5.9219z"/>
  <path d="m442.6 469.99c0.007813-7.2617 2.8984-14.223 8.0312-19.359 5.1367-5.1328 12.098-8.0234 19.359-8.0312h2.5977c2.3672 0.003906 4.7227 0.31641 7.0117 0.92578v-49.023c0-0.98047-0.39062-1.9219-1.0859-2.6172-0.69141-0.69141-1.6328-1.082-2.6133-1.082h-40.699v162.79h40.699c0.98047 0 1.9219-0.39062 2.6133-1.082 0.69531-0.69531 1.0859-1.6367 1.0859-2.6172v-37.141l-26.719-21.375c-6.5117-5.1875-10.301-13.066-10.281-21.391z"/>
  <path d="m261.3 509.2h-11.098l6.6602 8.8789c2.8008 3.7188 7.1836 5.9102 11.84 5.9219h11.098l-6.6602-8.8789c-2.8008-3.7188-7.1836-5.9102-11.84-5.9219z"/>
  <path d="m168.81 394.5v155.39c0 0.98047 0.39062 1.9219 1.0859 2.6172 0.69141 0.69141 1.6328 1.082 2.6133 1.082h114.7v-14.801h-18.496c-9.3125-0.019531-18.074-4.4023-23.68-11.836l-15.539-20.723c-1.6836-2.2422-1.9531-5.2422-0.69922-7.7461 1.2539-2.5078 3.8164-4.0898 6.6172-4.0898h25.898c9.3125 0.019531 18.074 4.4023 23.68 11.836l2.2188 2.9609v-22.258c-8-0.48047-15.52-3.9961-21.02-9.8281s-8.5664-13.543-8.5781-21.562v-20.348c0-2.5664 1.3281-4.9453 3.5117-6.293 2.1797-1.3477 4.9023-1.4727 7.1992-0.32422l17.328 8.6641v-0.003906c3.3984 1.7031 6.4414 4.0391 8.9609 6.8867 2.5195-2.8477 5.5586-5.1836 8.9609-6.8867l17.328-8.6641v0.003906c2.293-1.1484 5.0195-1.0234 7.1992 0.32422s3.5078 3.7266 3.5078 6.293v20.348c-0.007812 8.0195-3.0781 15.73-8.5781 21.562s-13.016 9.3477-21.02 9.8281v22.258l2.2188-2.9609c5.6055-7.4336 14.371-11.816 23.68-11.836h25.898c2.8047 0 5.3672 1.582 6.6211 4.0898 1.2539 2.5039 0.98047 5.5039-0.69922 7.7461l-15.539 20.719v0.003906c-5.6055 7.4336-14.367 11.816-23.68 11.836h-18.5v14.801h118.39v-162.79h-247.89c-2.043 0-3.6992 1.6562-3.6992 3.6992zm214.59 11.098h14.801v0.003906c1.9648 0 3.8477 0.77734 5.2344 2.1641 1.3867 1.3906 2.168 3.2734 2.168 5.2344v14.801c0 4.0859-3.3125 7.3984-7.4023 7.3984-4.0859 0-7.3984-3.3125-7.3984-7.3984v-7.3984h-7.3984v-0.003906c-4.0898 0-7.4023-3.3125-7.4023-7.3984s3.3125-7.3984 7.4023-7.3984zm0 118.39h7.3984v-7.3984l0.003906 0.003906c0-4.0898 3.3125-7.4023 7.3984-7.4023 4.0898 0 7.4023 3.3125 7.4023 7.4023v14.801-0.003907c0 1.9648-0.78125 3.8438-2.168 5.2344-1.3867 1.3867-3.2695 2.1641-5.2344 2.1641h-14.797c-4.0898 0-7.4023-3.3125-7.4023-7.3984 0-4.0859 3.3125-7.3984 7.4023-7.3984zm-73.996-110.99c2.9961 0 5.6914 1.8047 6.8398 4.5664 1.1445 2.7656 0.51172 5.9492-1.6055 8.0664-2.1172 2.1172-5.3008 2.75-8.0625 1.6016-2.7656-1.1445-4.5703-3.8438-4.5703-6.8359 0-4.0859 3.3125-7.3984 7.3984-7.3984zm-14.801-7.3984h0.003907c2.9922 0 5.6914 1.8008 6.8359 4.5664 1.1445 2.7656 0.51172 5.9492-1.6055 8.0625-2.1133 2.1172-5.2969 2.75-8.0625 1.6055-2.7656-1.1445-4.5703-3.8438-4.5703-6.8359 0-4.0859 3.3164-7.3984 7.4023-7.3984zm-14.801 7.3984h0.003907c2.9922 0 5.6914 1.8047 6.8359 4.5664 1.1445 2.7656 0.51172 5.9492-1.6016 8.0664-2.1172 2.1172-5.3008 2.75-8.0664 1.6016-2.7656-1.1445-4.5664-3.8438-4.5664-6.8359 0-4.0859 3.3125-7.3984 7.3984-7.3984zm-96.191 0c0-4.0859 3.3125-7.3984 7.3984-7.3984h14.801c4.0859 0 7.3984 3.3125 7.3984 7.3984s-3.3125 7.3984-7.3984 7.3984h-7.3984v7.4023c0 4.0859-3.3164 7.3984-7.4023 7.3984-4.0859 0-7.3984-3.3125-7.3984-7.3984zm0 103.6c0-4.0898 3.3125-7.4023 7.3984-7.4023 4.0859 0 7.4023 3.3125 7.4023 7.4023v7.3984h7.3984c4.0859 0 7.3984 3.3125 7.3984 7.3984 0 4.0859-3.3125 7.3984-7.3984 7.3984h-14.801c-4.0859 0-7.3984-3.3125-7.3984-7.3984z"/>
  <path d="m316.8 447.17-6.6172 3.3086h-0.003906c-2.4648 1.2227-4.5352 3.1094-5.9805 5.4492-1.4453 2.3398-2.207 5.0391-2.1992 7.7891v8.3789c4.0703-0.46094 7.8242-2.4023 10.555-5.4531 2.7305-3.0547 4.2383-7.0039 4.2461-11.098z"/>
  <path d="m302 168.81c0 4.0898-3.3125 7.4023-7.3984 7.4023-4.0859 0-7.4023-3.3125-7.4023-7.4023 0-4.0859 3.3164-7.3984 7.4023-7.3984 4.0859 0 7.3984 3.3125 7.3984 7.3984"/>
  <path d="m287.2 176.21c0 4.0859-3.3125 7.3984-7.3984 7.3984-4.0859 0-7.3984-3.3125-7.3984-7.3984 0-4.0898 3.3125-7.4023 7.3984-7.4023 4.0859 0 7.3984 3.3125 7.3984 7.4023"/>
  <path d="m316.8 176.21c0 4.0859-3.3125 7.3984-7.4023 7.3984-4.0859 0-7.3984-3.3125-7.3984-7.3984 0-4.0898 3.3125-7.4023 7.3984-7.4023 4.0898 0 7.4023 3.3125 7.4023 7.4023"/>
  <path d="m302 287.2h14.801c9.3086-0.019531 18.074-4.4023 23.68-11.836l13.316-17.762h-22.199c-9.3086 0.023437-18.074 4.4062-23.676 11.84l-5.918 7.8945-0.003906-47.027c3.8438-1.8633 7.082-4.7695 9.3516-8.3867 2.2695-3.6172 3.4727-7.7969 3.4805-12.066v-11.449l-9.0508 4.5234v-0.003906c-3.3008 1.6406-6.0898 4.1562-8.0586 7.2734-1.9727 3.1172-3.0469 6.7188-3.1055 10.406h-0.03125c-0.0625-3.6875-1.1367-7.2891-3.1055-10.406s-4.7617-5.6328-8.0625-7.2734l-9.0469-4.5195v11.449c0.003906 4.2188 1.1797 8.3555 3.3984 11.945 2.2188 3.5898 5.3945 6.4961 9.168 8.3867l0.39453 47.316-6.0508-8.0625c-5.6055-7.4336-14.367-11.816-23.68-11.84h-22.199l13.32 17.758v0.003907c5.6055 7.4336 14.367 11.816 23.68 11.836h15.008l0.30859 37h-44.914v14.801h103.59v-14.801h-44.398z"/>
 </g>
</svg>
