<?xml version="1.0" encoding="UTF-8"?>
<svg width="752pt" height="752pt" version="1.1" viewBox="0 0 752 752" xmlns="http://www.w3.org/2000/svg">
 <g fill="#1e3989">
  <path d="m514.13 203.34c0 16.348-13.25 29.602-29.598 29.602s-29.602-13.254-29.602-29.602c0-16.344 13.254-29.598 29.602-29.598s29.598 13.254 29.598 29.598"/>
  <path d="m479.6 149.08h9.8672v14.801h-9.8672z"/>
  <path d="m479.6 242.81h9.8672v14.801h-9.8672z"/>
  <path d="m524 198.41h14.801v9.8672h-14.801z"/>
  <path d="m430.27 198.41h14.801v9.8672h-14.801z"/>
  <path d="m508.95 171.95 10.465-10.465 6.9766 6.9766-10.465 10.465z"/>
  <path d="m442.67 238.23 10.465-10.465 6.9766 6.9766-10.465 10.465z"/>
  <path d="m508.95 234.75 6.9766-6.9766 10.465 10.465-6.9766 6.9766z"/>
  <path d="m442.67 168.46 6.9766-6.9766 10.465 10.465-6.9766 6.9766z"/>
  <path d="m552.61 435.2c-10.211 0-18.746 8.2891-18.746 18.449 0 0.24609 0.20703 77.051 0.27734 102.03l15.789-6.3125c1.4805-0.58594 3.0781-0.80469 4.6484-0.65625l13.781 1.375 4.9688-31.023 21.605-27.133c4.0938-4.0938 4.0938-10.703 0-14.801-2.0703-2.0703-4.7344-3.0586-7.3984-3.0586-2.6641 0-5.3281 0.98828-7.3984 3.0586l-12.332 12.332 3.2578-34.234c0.88281-10.754-7.6016-20.027-18.453-20.027zm10.254 78.93h-9.8672v-14.801h9.8672z"/>
  <path d="m223.07 286.76c-13.996-2.3516-24.664-14.492-24.664-29.156 14.66 0 26.801 10.672 29.156 24.664h0.88672c2.3516-13.996 14.492-24.664 29.156-24.664 0 14.66-10.672 26.801-24.664 29.156l-0.003906 30.043h73.996v-30.043c-13.996-2.3516-24.664-14.492-24.664-29.156 14.66 0 26.801 10.672 29.156 24.664h0.88672c2.3516-13.996 14.492-24.664 29.156-24.664 0 14.66-10.672 26.801-24.664 29.156l-0.003906 30.043h69.062c0-65.391-53.008-118.39-118.39-118.39-65.391 0-118.39 53.004-118.39 118.39h73.996z"/>
  <path d="m484.53 297.07c-65.391 0-118.39 53.008-118.39 118.39h73.996v-30.043c-13.996-2.3516-24.664-14.492-24.664-29.156 14.66 0 26.801 10.672 29.156 24.664h0.88672c2.3516-13.996 14.492-24.664 29.156-24.664 0 14.66-10.672 26.801-24.664 29.156l-0.003906 30.043h73.996v-30.043c-13.996-2.3516-24.664-14.492-24.664-29.156 14.66 0 26.801 10.672 29.156 24.664h0.88672c2.3516-13.996 14.492-24.664 29.156-24.664 0 14.66-10.672 26.801-24.664 29.156l-0.003907 30.043h69.062c0-65.387-53.008-118.39-118.39-118.39z"/>
  <path d="m302 454.93c-81.738 0-147.99 66.258-147.99 148h59.199v-30.043c-13.996-2.3516-24.664-14.492-24.664-29.156 14.66 0 26.801 10.672 29.156 24.664h0.88672c2.3516-13.996 14.492-24.664 29.156-24.664 0 14.66-10.672 26.801-24.664 29.156l-0.007812 30.043h73.996v-30.043c-13.996-2.3516-24.664-14.492-24.664-29.156 14.66 0 26.801 10.672 29.156 24.664h0.88672c2.3516-13.996 14.492-24.664 29.156-24.664 0 14.66-10.672 26.801-24.664 29.156l-0.003906 30.043h73.996v-30.043c-13.996-2.3516-24.664-14.492-24.664-29.156 14.66 0 26.801 10.672 29.156 24.664h0.88672c2.3516-13.996 14.492-24.664 29.156-24.664 0 14.66-10.672 26.801-24.664 29.156l-0.003907 30.043h59.199c0-81.738-66.258-148-148-148z"/>
  <path d="m528.93 568.39-14.801 9.8672-29.598 9.8672 0.42578 14.285 117.79 0.51172 0.18359-39.465-49.332-4.9336zm14.797 19.73h-9.8672v-9.8672h9.8672zm29.602-9.8633h9.8672v9.8672h-9.8672z"/>
  <path d="m459.86 489.46h9.8672v9.8672h-9.8672z"/>
  <path d="m494.4 519.06h9.8672v9.8672h-9.8672z"/>
  <path d="m494.4 459.86h9.8672v9.8672h-9.8672z"/>
  <path d="m415.46 454.93h9.8672v9.8672h-9.8672z"/>
  <path d="m168.81 341.47h9.8672v9.8672h-9.8672z"/>
  <path d="m198.41 380.93h9.8672v9.8672h-9.8672z"/>
  <path d="m277.34 356.27h9.8672v9.8672h-9.8672z"/>
  <path d="m242.81 410.54h9.8672v9.8672h-9.8672z"/>
  <path d="m331.6 376h9.8672v9.8672h-9.8672z"/>
  <path d="m168.81 440.13h9.8672v9.8672h-9.8672z"/>
  <path d="m311.87 415.46h9.8672v9.8672h-9.8672z"/>
 </g>
</svg>
