<?xml version="1.0" encoding="UTF-8"?>
<svg width="752pt" height="752pt" version="1.1" viewBox="0 0 752 752" xmlns="http://www.w3.org/2000/svg">
 <defs>
  <clipPath id="a">
   <path d="m139.21 161h473.58v304h-473.58z"/>
  </clipPath>
 </defs>
 <path d="m398.7 377.98h-45.387c-5.918 0-9.8672 3.9453-9.8672 9.8672 0 5.918 3.9453 9.8672 9.8672 9.8672h45.387c5.918 0 9.8672-3.9453 9.8672-9.8672-0.003906-5.9219-3.9492-9.8672-9.8672-9.8672z" fill="#21c55d"/>
 <path d="m453.95 299.04h-17.758c-5.918 0-9.8672 3.9453-9.8672 9.8672 0 5.918 3.9453 9.8672 9.8672 9.8672h17.758c5.918 0 9.8672-3.9453 9.8672-9.8672 0-5.918-3.9492-9.8672-9.8672-9.8672z" fill="#21c55d"/>
 <path d="m315.82 299.04h-17.758c-5.918 0-9.8672 3.9453-9.8672 9.8672 0 5.918 3.9453 9.8672 9.8672 9.8672h17.758c5.918 0 9.8672-3.9453 9.8672-9.8672 0-5.918-3.9453-9.8672-9.8672-9.8672z" fill="#21c55d"/>
 <path d="m450 486.5h-147.01c-5.918 0-9.8672 3.9453-9.8672 9.8672 0 5.918 3.9453 9.8672 9.8672 9.8672h147.01c5.918 0 9.8672-3.9453 9.8672-9.8672-0.003907-5.9219-4.9375-9.8672-9.8672-9.8672z" fill="#21c55d"/>
 <path d="m450 528.93h-147.01c-5.918 0-9.8672 3.9453-9.8672 9.8672 0 5.918 3.9453 9.8672 9.8672 9.8672h147.01c5.918 0 9.8672-3.9453 9.8672-9.8672-0.003907-5.9219-4.9375-9.8672-9.8672-9.8672z" fill="#21c55d"/>
 <path d="m450 571.36h-147.01c-5.918 0-9.8672 3.9453-9.8672 9.8672 0 5.918 3.9453 9.8672 9.8672 9.8672h147.01c5.918 0 9.8672-3.9453 9.8672-9.8672-0.003907-5.9219-4.9375-9.8672-9.8672-9.8672z" fill="#21c55d"/>
 <g clip-path="url(#a)">
  <path d="m577.27 313.84c-15.785 0-29.598 10.852-33.547 25.652h-13.812v-67.09c0-21.707-17.758-39.465-39.465-39.465h-34.531c-4.9336-40.453-39.465-71.039-79.918-71.039-41.438 0-75.969 31.57-79.918 71.039h-34.531c-21.707 0-39.465 17.758-39.465 39.465v67.09h-14.797c-3.9453-14.801-17.758-25.652-33.547-25.652-19.734 0-35.52 15.785-35.52 35.52s15.785 35.52 35.52 35.52c15.785 0 29.598-10.852 33.547-25.652h13.812v66.102c0 21.707 17.758 39.465 39.465 39.465h229.88c21.707 0 39.465-17.758 39.465-39.465v-67.09h13.812c3.9453 14.801 17.758 25.652 33.547 25.652 19.734 0 35.52-15.785 35.52-35.52 0-19.73-15.789-34.531-35.52-34.531zm-402.54 50.316c-8.8789 0-15.785-6.9062-15.785-15.785s6.9062-15.785 15.785-15.785c8.8789 0 15.785 6.9062 15.785 15.785s-7.8945 15.785-15.785 15.785zm201.27-183.51c30.586 0 55.25 22.691 60.184 51.305h-120.37c4.9336-29.598 29.598-51.305 60.184-51.305zm135.17 244.68c0 10.852-8.8789 19.734-19.734 19.734h-229.88c-10.852 0-19.734-8.8789-19.734-19.734l0.003906-153.91c0-10.852 8.8789-19.734 19.734-19.734h229.88c10.852 0 19.734 8.8789 19.734 19.734zm66.105-61.172c-8.8789 0-15.785-6.9062-15.785-15.785s6.9062-15.785 15.785-15.785c8.8789 0 15.785 6.9062 15.785 15.785s-6.9062 15.785-15.785 15.785z" fill="#21c55d"/>
 </g>
</svg>
