<?xml version="1.0" encoding="UTF-8"?>
<svg width="752pt" height="752pt" version="1.1" viewBox="0 0 752 752" xmlns="http://www.w3.org/2000/svg">
 <g fill="#1e3989">
  <path d="m382.38 456.38 44.398-44.398 6.9766 6.9766-44.398 44.398z"/>
  <path d="m318.25 418.95 6.9766-6.9766 44.398 44.398-6.9766 6.9766z"/>
  <path d="m277.34 593.06c0 5.4492 4.4141 9.8672 9.8672 9.8672h177.59c5.4492 0 9.8672-4.4141 9.8672-9.8672v-44.398h-197.33zm98.66-34.531c8.1758 0 14.801 6.625 14.801 14.801s-6.625 14.801-14.801 14.801-14.801-6.625-14.801-14.801c0.003906-8.1758 6.6289-14.801 14.801-14.801z"/>
  <path d="m252.67 217.64v35.027c0 2.1758 1.4297 4.0977 3.5156 4.7266l45.816 13.746v50.594h-14.801c-5.4492 0-9.8672 4.4141-9.8672 9.8672v19.734h197.32v-19.734c0-5.4492-4.4141-9.8672-9.8672-9.8672h-14.801l0.007812-50.594 45.812-13.742c2.0859-0.62891 3.5156-2.5547 3.5156-4.7305v-35.031c11.258-2.2852 19.734-12.234 19.734-24.168 0-13.621-11.047-24.664-24.664-24.664-13.621 0-24.664 11.047-24.664 24.664 0 11.934 8.4766 21.883 19.734 24.168v31.359l-45.812 13.742c-2.0938 0.62891-3.5234 2.5547-3.5234 4.7305v54.266h-59.199v-123.83c11.258-2.2852 19.734-12.234 19.734-24.168 0-13.621-11.047-24.664-24.664-24.664-13.621 0-24.664 11.047-24.664 24.664 0 11.934 8.4766 21.883 19.734 24.168l-0.007813 123.83h-59.195v-54.266c0-2.1758-1.4297-4.0977-3.5156-4.7266l-45.816-13.742v-31.359c11.258-2.2852 19.734-12.234 19.734-24.168 0-13.621-11.047-24.664-24.664-24.664-13.621 0-24.664 11.047-24.664 24.664-0.003906 11.934 8.4688 21.883 19.727 24.168zm231.86-24.168c0-5.4492 4.4141-9.8672 9.8672-9.8672 5.4492 0 9.8672 4.4141 9.8672 9.8672 0 5.4492-4.4141 9.8672-9.8672 9.8672-5.4531-0.003906-9.8672-4.418-9.8672-9.8672zm-118.39-19.734c0-5.4492 4.4141-9.8672 9.8672-9.8672 5.4492 0 9.8672 4.4141 9.8672 9.8672 0 5.4492-4.4141 9.8672-9.8672 9.8672s-9.8672-4.4141-9.8672-9.8672zm-4.9336 157.86h29.598v9.8672h-29.598zm-103.6-147.99c5.4492 0 9.8672 4.4141 9.8672 9.8672 0 5.4492-4.4141 9.8672-9.8672 9.8672-5.4492 0-9.8672-4.4141-9.8672-9.8672 0-5.4531 4.418-9.8672 9.8672-9.8672z"/>
  <path d="m178.68 336.54c11.934 0 21.883-8.4766 24.168-19.734l20.23 0.003907v128.26c0 2.7227 2.207 4.9336 4.9336 4.9336h49.332v34.531h-29.598c-2.7266 0-4.9336 2.2109-4.9336 4.9336v59.199h-30.098c-2.2852-11.258-12.234-19.734-24.168-19.734-13.621 0-24.664 11.047-24.664 24.664 0 13.621 11.047 24.664 24.664 24.664 11.934 0 21.883-8.4766 24.168-19.734l35.027 0.003906c2.7266 0 4.9336-2.2109 4.9336-4.9336v-59.195h24.664v44.398h197.32v-44.398h24.664v59.199c0 2.7227 2.207 4.9336 4.9336 4.9336h35.031c2.2852 11.258 12.234 19.734 24.168 19.734 13.621 0 24.664-11.047 24.664-24.664 0-13.621-11.047-24.664-24.664-24.664-11.934 0-21.883 8.4766-24.168 19.734l-30.094-0.011719v-59.195c0-2.7227-2.207-4.9336-4.9336-4.9336h-29.598v-34.531h49.332c2.7266 0 4.9336-2.2109 4.9336-4.9336v-128.26h20.23c2.2852 11.258 12.234 19.734 24.168 19.734 13.621 0 24.664-11.047 24.664-24.664 0-13.621-11.047-24.664-24.664-24.664-11.934 0-21.883 8.4766-24.168 19.734l-25.164-0.007812c-2.7266 0-4.9336 2.2109-4.9336 4.9336v128.26h-44.398v-78.93h-197.32v78.93h-44.398v-128.26c0-2.7227-2.207-4.9336-4.9336-4.9336h-25.164c-2.2852-11.258-12.234-19.734-24.168-19.734-13.621 0-24.664 11.047-24.664 24.664 0 13.625 11.043 24.668 24.664 24.668zm9.8672 226.93c-5.4492 0-9.8672-4.4141-9.8672-9.8672 0-5.4492 4.4141-9.8672 9.8672-9.8672 5.4492 0 9.8672 4.4141 9.8672 9.8672s-4.418 9.8672-9.8672 9.8672zm374.92-19.734c5.4492 0 9.8672 4.4141 9.8672 9.8672 0 5.4492-4.4141 9.8672-9.8672 9.8672-5.4492 0-9.8672-4.4141-9.8672-9.8672 0-5.4492 4.4141-9.8672 9.8672-9.8672zm9.8672-241.72c5.4492 0 9.8672 4.4141 9.8672 9.8672 0 5.4492-4.4141 9.8672-9.8672 9.8672-5.4492 0-9.8672-4.4141-9.8672-9.8672s4.4141-9.8672 9.8672-9.8672zm-266.39 98.664h7.4062c29.348 0 53.906 20.504 60.137 47.961 0.37109 1.6367 2.6836 1.6367 3.0547 0 6.2227-27.461 30.785-47.961 60.125-47.961h7.4062v7.4062c0 34.051-27.605 61.656-61.66 61.656h-2.4727v49.332h-9.8672v-49.332h-2.4727c-34.051 0-61.656-27.605-61.656-61.66zm-128.26-98.664c5.4492 0 9.8672 4.4141 9.8672 9.8672 0 5.4492-4.4141 9.8672-9.8672 9.8672-5.4492 0-9.8672-4.4141-9.8672-9.8672s4.418-9.8672 9.8672-9.8672z"/>
 </g>
</svg>
