<?xml version="1.0" encoding="UTF-8"?>
<svg width="752pt" height="752pt" version="1.1" viewBox="0 0 752 752" xmlns="http://www.w3.org/2000/svg">
 <defs>
  <clipPath id="f">
   <path d="m139.21 274h281.79v338.79h-281.79z"/>
  </clipPath>
  <clipPath id="e">
   <path d="m139.21 176h163.79v134h-163.79z"/>
  </clipPath>
  <clipPath id="d">
   <path d="m139.21 139.21h473.58v59.789h-473.58z"/>
  </clipPath>
  <clipPath id="c">
   <path d="m139.21 294h15.789v267h-15.789z"/>
  </clipPath>
  <clipPath id="b">
   <path d="m279 316h333.79v296.79h-333.79z"/>
  </clipPath>
  <clipPath id="a">
   <path d="m531 213h81.793v90h-81.793z"/>
  </clipPath>
 </defs>
 <g clip-path="url(#f)">
  <path d="m269.11 584.44-1.8867-1.2461h12.578c1.9648 0 3.8438-0.77734 5.2305-2.168l7.3984-7.3984h0.003906c2.25-2.25 2.8125-5.6914 1.3906-8.5391l-0.41406-0.82813 10.93-3.6406c1.0898-0.36719 2.0781-0.98047 2.8906-1.793l6.5469-6.5469h0.003906c10.418-1.9023 19.137-9.0117 23.102-18.832 0.98438-2.1445 1.7773-4.375 2.3672-6.6602l27.18-27.18c1.3828-1.3828 2.1602-3.2539 2.168-5.207v-7.4023h22.199c2.3281 0 4.5234-1.0977 5.918-2.9609l22.199-29.598-0.050781-0.035156c0.98047-1.2617 1.5156-2.8086 1.5312-4.4023v-14.801c0-3.5156-2.4727-6.5469-5.918-7.25l-0.44531-0.089844 0.17188-0.058594 1.1328-0.37891c3.0195-1.0078 5.0625-3.8359 5.0586-7.0234v-22.199c0-1.9609-0.77734-3.8438-2.168-5.2305-1.3867-1.3867-3.2695-2.168-5.2305-2.168h-14.172c4.3125-2.7773 8.332-5.9844 12.004-9.5664 2.8867-2.8906 2.8867-7.5742 0-10.465l-14.801-14.801c-1.8359-1.8359-4.5078-2.5742-7.0273-1.9453l-38.664 9.6641c3.8281-6.2539 7-12.887 9.4648-19.793l6.5352-4.3594h-0.003906c9.8203-6.5703 17.809-15.523 23.223-26.023l9.1914-13.793c3.0703-4.5391 3.6602-10.316 1.5664-15.379-2.0898-5.0664-6.582-8.7422-11.961-9.793-5.3789-1.0508-10.926 0.67188-14.766 4.5781l-17.277 17.277-29.148 21.883v0.042969c-0.92969 0.67188-1.6914 1.5508-2.2188 2.5664-4.7266 9.4492-10.293 18.453-16.629 26.906l-11.949 15.938-4.8242 4.8633h-4.3398c-2.8047 0-5.3672 1.582-6.6211 4.0938l-6.9492 13.902-15.141 16.828-3.0547-3.0547v-0.003906c-1.3438-1.3125-3.1445-2.0586-5.0234-2.0781l1.2969-5.1797h-0.003907c4.0586-16.191 3.4062-33.203-1.8789-49.039-0.61719-1.8594-1.9531-3.4023-3.707-4.2812-1.7578-0.87891-3.7891-1.0234-5.6523-0.40234l-22.199 7.3984v0.003906c-2.2109 0.73438-3.9492 2.4688-4.6836 4.6836l-4.0781 12.262c-1.8203 5.4336-4.875 10.375-8.9219 14.434-2.8906 2.8906-2.8906 7.5742 0 10.465l12.691 12.691c0 0.19141-0.058594 0.37891-0.058594 0.57812v17.27l-3.8125 2.2852c-2.2305 1.3359-3.5977 3.7422-3.5977 6.3438v37h0.082031v-0.003906c-0.027344 1.1406 0.21094 2.2734 0.69531 3.3086l6.0312 12.062-5.4609 16.383-12.055 6.0234c-1.1523 0.57812-2.1328 1.4453-2.8477 2.5156l-14.801 22.199c-1.1797 1.7656-1.543 3.9531-1 6.0078 0.54688 2.0508 1.9492 3.7734 3.8477 4.7227l7.3047 3.6484-7.957 11.926h-3.4375c-2.4766 0-4.7852 1.2344-6.1562 3.293l-29.598 44.398h-0.003906c-1.5156 2.2695-1.6562 5.1914-0.36719 7.5977 1.2852 2.4062 3.7969 3.9102 6.5234 3.9102h111c2.8047 0 5.3711-1.5859 6.625-4.0938l7.3984-14.801v0.003906c1.668-3.3398 0.58984-7.3984-2.5156-9.4648zm18.09-33.715v-4.5273c0.003906-1.1484-0.26172-2.2812-0.77344-3.3086l-7.3984-14.801h-0.003906c-0.62891-1.2578-1.6055-2.3086-2.8125-3.0312l-37-22.199h0.003906c-0.46875-0.28125-0.96484-0.51172-1.4805-0.68359l-15.176-5.0547 3.3789-10.121h7.7188l27.957 13.977 0.082031 0.042969v0.003906c1.0273 0.51172 2.1602 0.77734 3.3086 0.77734h4.3359l3.0625 3.0625v4.3359c-0.015625 2.8203 1.5703 5.4023 4.0898 6.6602l14.801 7.3984c0.75391 0.37109 1.5625 0.60938 2.3984 0.70312-0.73047 3.5938-0.85156 7.2812-0.36328 10.914 0.59766 4.3164 2.4609 8.3594 5.3516 11.621l-0.67188 0.67187zm36.297-23.574c-3.7891 8.0508-10.359 11.484-13 10.242-1.5312-1.1055-2.4688-2.8594-2.5312-4.7461-0.42188-4.0547 0.31641-8.1523 2.1367-11.801 1.8828-5.2578 6.3008-9.207 11.738-10.484 0.43359-0.011719 0.86328 0.070313 1.2656 0.24219 1.5312 1.1055 2.4648 2.8555 2.5312 4.7422 0.42188 4.0586-0.32031 8.1523-2.1406 11.805zm30.301-47.551v11.734l-15.465 15.457v0.003907c-1.7227-4.1758-4.9062-7.5781-8.9531-9.5781-9.2266-4.3516-20.504 0.097656-28.18 10.094l-1.0195 0.25781-4.7422 1.1836-8.2383-4.1289v-2.8242c0-1.9609-0.77734-3.8438-2.168-5.2305l-7.3984-7.3984v-0.003907c-0.68359-0.68359-1.5-1.2305-2.3984-1.5977-0.23828-0.10547-0.51953-0.082031-0.73828-0.16406-0.66406-0.23047-1.3555-0.36719-2.0586-0.40625h-5.75l-27.977-13.992c-1.0234-0.52344-2.1562-0.79688-3.3086-0.80469h-10.227l-3.1016-6.1953 10.699-11.883h0.003906c17.84 4.6992 34.961 11.812 50.879 21.141l10.832 6.5039c1.1523 0.6875 2.4688 1.0547 3.8125 1.0586h29.598c1.9648 0 3.8438-0.78125 5.2344-2.168l17.906-17.914 9.9297 6.6211-5.0039 5.0039c-1.3867 1.3867-2.168 3.2695-2.168 5.2305zm51.797-34.254h0.003906c-5.6328 2.4531-11.637 3.9531-17.762 4.4414l-5.1797-10.492c-0.35938-0.71094-0.82812-1.3594-1.3906-1.9258l-1.2227-1.2227 25.555 5.1211zm-18.496 26.855h-8.0352l7.5938-7.5938c2.2188-0.10547 4.3945-0.27344 6.5781-0.58594zm18.5-57.203c-9.6523 2.8633-19.605 4.5898-29.66 5.1367-0.03125-1.0547-0.28125-2.0898-0.73828-3.0391l-5.7266-11.492h36.125zm-10.781-39.309v0.003906c-7.6055 5.9766-16.512 10.074-25.996 11.957l-7.8594 1.5742v0.003906c-0.48438-2.3281-2.0664-4.2773-4.2461-5.2266l-9.7969-4.2031 41.609-10.402zm-36.688-48.469-4.332 2.9062-9.3906-6.2617 18.129-13.602 9.7695 3.2617v0.003906c-3.8594 5.3828-8.6641 10.023-14.176 13.695zm27.719-37.922v0.003906c0.39453 0.19141 0.68359 0.54688 0.78906 0.97656 0.12109 0.42188 0.046875 0.87891-0.20703 1.2422l-6.0547 9.0781-5.4844-1.8281 9.1836-9.1836h0.003906c0.46484-0.46484 1.1797-0.58203 1.7695-0.28516zm-51.531 45.605 10.531 7.0234h-0.003906c-4.375 10.742-10.734 20.562-18.742 28.953l-12.535-5.3711 6.6211-8.8281c5.1992-6.9297 9.918-14.203 14.129-21.777zm-49.016 60.848c0.44531-0.49609 0.82031-1.0469 1.125-1.6406l5.3477-10.707h2.8281c1.9609 0 3.8438-0.78125 5.2305-2.168l3.8633-3.8555 42.703 18.297v2.5234c0 1.9648 0.78125 3.8438 2.168 5.2344l6.5469 6.5469 6.0859 12.164v13.055c0 1.9609 0.77734 3.8438 2.168 5.2305l6.5469 6.5469 4.4766 8.9609-2.7539 2.7539-17.43-11.652c-2.9375-1.957-6.8477-1.5703-9.3398 0.92578l-20.031 20.031h-24.484l-9.082-5.418c-14.965-8.7656-30.938-15.68-47.57-20.594zm-64.695 49.766v-13.527l26.461-15.871zm2.9609-77.098 2.9219-8.7617 11.312-3.7734c2.082 9.4609 2.25 19.246 0.49609 28.777-2.9727-1.1758-6.1992-1.5352-9.3594-1.0469-3.1562 0.48828-6.125 1.8086-8.6016 3.8281l-4.4414-4.4414h0.003906c3.3125-4.4219 5.9023-9.3438 7.6641-14.582zm4.4375 33.48c0-2.043 1.6562-3.6992 3.6992-3.6992s3.6992 1.6562 3.6992 3.6992v3.9531l-7.3984 4.4414zm-24.531 113.04 10.293-5.1797 18.5 6.1719 34.453 20.676 5.6836 11.336v5.6523c0 1.1484 0.26562 2.2812 0.77734 3.3086l5.0156 10.035-1.4805 1.4805-4.3125-0.003907c0-0.18359-0.10547-0.35547-0.11719-0.53906-0.058593-0.71094-0.21875-1.4102-0.47656-2.0781-0.089844-0.27344-0.19531-0.54297-0.31641-0.80859-0.45312-0.90234-1.0898-1.7031-1.8672-2.3516l-37-29.598h0.003906c-1.3086-1.0586-2.9414-1.6367-4.625-1.6445h-27.852l-5.7422-2.8711zm-1.1094 31.258h23.043l30.34 24.242-1.0273 2.0508-0.875 1.7461-29.094-19.402-0.003906-0.003906c-1.2266-0.8125-2.668-1.2422-4.1406-1.2344h-23.172zm-12.328 51.797 4.9297-7.3984h16.02l11.098 7.3984zm62.992 0h-10.359c0-0.25 0.10938-0.48047 0.089844-0.73828-0.21875-2.207-1.4141-4.1953-3.2539-5.4258l-22.199-14.801c-1.2188-0.80078-2.6445-1.2305-4.1016-1.2344h-22.199c-2.4727 0-4.7812 1.2344-6.1562 3.293l-12.602 18.906h-11.84l19.727-29.598h38.25l34.207 22.805 2.8867 1.9258z" fill="#fff"/>
 </g>
 <g clip-path="url(#e)">
  <path d="m146.61 279.8h54.625l12.75 25.508c1.2539 2.5117 3.8164 4.0977 6.625 4.0977 2.8047 0 5.3711-1.5859 6.6211-4.0977l12.75-25.508h54.625c1.9609 0 3.8438-0.77734 5.2305-2.168 1.3906-1.3867 2.168-3.2695 2.168-5.2305v-88.797c0-1.9609-0.77734-3.8438-2.168-5.2344-1.3867-1.3867-3.2695-2.1641-5.2305-2.1641h-148c-4.0859 0-7.3984 3.3125-7.3984 7.3984v88.797c0 1.9609 0.78125 3.8438 2.168 5.2305 1.3867 1.3906 3.2695 2.168 5.2305 2.168zm7.4023-88.797h133.19v74h-51.797c-2.8047-0.003906-5.3672 1.582-6.6211 4.0898l-8.1758 16.359-8.1406-16.359c-1.2617-2.5195-3.8438-4.1055-6.6602-4.0898h-51.797z" fill="#fff"/>
 </g>
 <path d="m464.8 435.2v118.39c0 1.9648 0.78125 3.8438 2.168 5.2344 1.3867 1.3867 3.2695 2.1641 5.2344 2.1641h9.0195l6 23.996v0.003907c0.69531 2.7656 2.918 4.8867 5.7109 5.4531 0.48437 0.097657 0.97656 0.14844 1.4688 0.14844 2.3281 0 4.5195-1.0977 5.918-2.9609l19.98-26.641h55.496c1.9648 0 3.8438-0.77734 5.2344-2.1641 1.3867-1.3906 2.1641-3.2695 2.1641-5.2344v-118.39c0-1.9609-0.77734-3.8438-2.1641-5.2344-1.3906-1.3867-3.2695-2.1641-5.2344-2.1641h-103.59c-4.0898 0-7.4023 3.3125-7.4023 7.3984zm14.801 7.3984h88.797v103.6h-51.797c-2.332 0-4.5234 1.0977-5.9219 2.9609l-12.875 17.16-3.625-14.52c-0.82422-3.293-3.7852-5.6016-7.1797-5.6016h-7.3984z" fill="#fff"/>
 <path d="m494.4 457.4h59.199v14.801h-59.199z" fill="#fff"/>
 <path d="m524 487h29.598v14.801h-29.598z" fill="#fff"/>
 <path d="m494.4 516.6h44.398v14.801h-44.398z" fill="#fff"/>
 <path d="m494.4 487h14.801v14.801h-14.801z" fill="#fff"/>
 <path d="m198.41 205.81h73.996v14.801h-73.996z" fill="#fff"/>
 <path d="m168.81 235.41h73.996v14.801h-73.996z" fill="#fff"/>
 <path d="m168.81 205.81h14.801v14.801h-14.801z" fill="#fff"/>
 <g clip-path="url(#d)">
  <path d="m605.39 139.21h-458.78c-4.0859 0-7.3984 3.3125-7.3984 7.3984v14.801h14.801v-7.3984h443.98v44.398h14.801v-51.801c0-1.9609-0.78125-3.8438-2.168-5.2305-1.3867-1.3867-3.2695-2.168-5.2344-2.168z" fill="#fff"/>
 </g>
 <g clip-path="url(#c)">
  <path d="m139.21 294.61h14.801v266.39h-14.801z" fill="#fff"/>
 </g>
 <g clip-path="url(#b)">
  <path d="m597.99 346.4h-81.395c-4.0898 0-7.4023 3.3125-7.4023 7.3984v37c0 1.9609 0.78125 3.8438 2.168 5.2305 1.3867 1.3906 3.2695 2.168 5.2344 2.168h81.395v199.79h-140.59v-22.199c0-1.9609-0.78125-3.8438-2.168-5.2305-1.3867-1.3906-3.2695-2.168-5.2305-2.168h-111c-4.0859 0-7.4023 3.3125-7.4023 7.3984v22.199h-51.797v14.801h325.59c1.9648 0 3.8477-0.78125 5.2344-2.168s2.168-3.2695 2.168-5.2344v-288.59h-14.801zm-251.59 236.79h96.195v14.801h-96.195zm177.59-199.79v-22.199h73.996v22.199z" fill="#fff"/>
 </g>
 <path d="m257.61 235.41h14.801v14.801h-14.801z" fill="#fff"/>
 <path d="m494.4 198.41h-162.8c-4.0859 0-7.3984 3.3125-7.3984 7.3984v81.395h14.801v-73.996h147.99v103.6h-81.395v14.801l88.797-0.003907c1.9609 0 3.8438-0.77734 5.2305-2.1641 1.3867-1.3906 2.168-3.2695 2.168-5.2344v-118.39c0-1.9609-0.78125-3.8438-2.168-5.2344-1.3867-1.3867-3.2695-2.1641-5.2305-2.1641z" fill="#fff"/>
 <g clip-path="url(#a)">
  <path d="m531.39 220.61v73.996c0 1.9609 0.78125 3.8438 2.168 5.2305 1.3867 1.3906 3.2695 2.168 5.2305 2.168h74v-14.801h-66.598v-59.195h66.598v-14.801h-74c-4.0859 0-7.3984 3.3125-7.3984 7.4023z" fill="#fff"/>
 </g>
 <path d="m560.99 250.21h14.801v14.801h-14.801z" fill="#fff"/>
 <path d="m590.59 250.21h14.801v14.801h-14.801z" fill="#fff"/>
</svg>
