<?xml version="1.0" encoding="UTF-8"?>
<svg width="752pt" height="752pt" version="1.1" viewBox="0 0 752 752" xmlns="http://www.w3.org/2000/svg">
 <g fill="#fff">
  <path d="m173.74 198.41c0 13.602 11.066 24.664 24.664 24.664 13.602 0 24.664-11.066 24.664-24.664 0-13.602-11.066-24.664-24.664-24.664-13.598-0.003906-24.664 11.062-24.664 24.664zm24.668-14.801c8.1602 0 14.801 6.6406 14.801 14.801s-6.6406 14.801-14.801 14.801-14.801-6.6406-14.801-14.801 6.6406-14.801 14.801-14.801z"/>
  <path d="m193.48 149.08h9.8672v14.801h-9.8672z"/>
  <path d="m193.48 232.94h9.8672v14.801h-9.8672z"/>
  <path d="m232.94 193.48h14.801v9.8672h-14.801z"/>
  <path d="m149.08 193.48h14.801v9.8672h-14.801z"/>
  <path d="m219.34 170.5 10.465-10.465 6.9766 6.9766-10.465 10.465z"/>
  <path d="m160.04 229.8 10.465-10.465 6.9766 6.9766-10.465 10.465z"/>
  <path d="m219.34 226.32 6.9766-6.9766 10.465 10.465-6.9766 6.9766z"/>
  <path d="m160.04 167.01 6.9766-6.9766 10.465 10.465-6.9766 6.9766z"/>
  <path d="m597.99 336.54h-19.734l0.003907-59.195c0-2.7266-2.207-4.9336-4.9336-4.9336h-49.332v-20.434c8.4883-2.207 14.801-9.8633 14.801-19.031 0-10.883-8.8516-19.734-19.734-19.734s-19.734 8.8516-19.734 19.734c0 9.1719 6.3086 16.828 14.801 19.031v20.434h-49.332c-2.7266 0-4.9336 2.207-4.9336 4.9336v59.199h-19.734c-2.7266 0-4.9336 2.207-4.9336 4.9336v4.9336h-24.664c-2.1211 0-3.8906 1.3516-4.5859 3.2305l-11.273-11.273c0.62109-2.1641 1.0625-4.3984 1.0625-6.7617 0-8.0273-3.9102-15.102-9.8672-19.605v-33.293l42.113-26.801c1.668-1.0664 2.5469-3.0195 2.2148-4.9727l-4.9336-29.598c-0.24609-1.4766-1.1445-2.7578-2.4453-3.4883-1.3008-0.73828-2.8711-0.83984-4.2461-0.28516l-24.664 9.8672c-2.4258 0.97266-3.6758 3.6602-2.8477 6.1406l3.457 10.383-19.461 7.7891h-7.9688l-19.461-7.7852 3.457-10.383c0.82812-2.4805-0.41797-5.1719-2.8477-6.1406l-24.664-9.8672c-1.3828-0.55859-2.9492-0.45703-4.2461 0.28516-1.3008 0.73047-2.1992 2.0117-2.4453 3.4883l-4.9336 29.598c-0.32422 1.9531 0.54688 3.9062 2.2148 4.9727l42.109 26.793v33.293c-5.9531 4.5078-9.8672 11.582-9.8672 19.605 0 12.82 9.8711 23.27 22.391 24.434l36.809 36.812v2.8906c0 2.7266 2.207 4.9336 4.9336 4.9336h24.664v78.93c0 2.7266 2.207 4.9336 4.9336 4.9336h14.801v24.664c0 2.7266 2.207 4.9336 4.9336 4.9336v49.332h-19.734c-2.7266 0-4.9336 2.207-4.9336 4.9336v29.598c0 2.7266 2.207 4.9336 4.9336 4.9336h59.199c2.7266 0 4.9336-2.207 4.9336-4.9336v-29.598c0-2.7266-2.207-4.9336-4.9336-4.9336h-4.9336v-49.332c2.7266 0 4.9336-2.207 4.9336-4.9336v-24.664h39.465v24.664c0 2.7266 2.207 4.9336 4.9336 4.9336v49.332h-4.9336c-2.7266 0-4.9336 2.207-4.9336 4.9336v29.598c0 2.7266 2.207 4.9336 4.9336 4.9336h59.199c2.7266 0 4.9336-2.207 4.9336-4.9336v-29.598c0-2.7266-2.207-4.9336-4.9336-4.9336h-19.734v-49.332c2.7266 0 4.9336-2.207 4.9336-4.9336v-24.664h14.801c2.7266 0 4.9336-2.207 4.9336-4.9336l-0.003907-138.13c0-2.7266-2.207-4.9336-4.9336-4.9336zm-275.79-91.203 3.3945-20.336 14.656 5.8594-3.457 10.383c-0.82812 2.4805 0.41797 5.1719 2.8477 6.1406l24.664 9.8672c0.57422 0.24219 1.1953 0.35938 1.8242 0.35938h9.8672c0.625 0 1.25-0.11719 1.832-0.35156l24.664-9.8672c2.4258-0.97266 3.6758-3.6602 2.8477-6.1406l-3.457-10.383 14.656-5.8594 3.3945 20.336-48.875 31.082zm53.793 39.648v22.457c-1.5938-0.32812-3.2461-0.5-4.9336-0.5s-3.3398 0.17188-4.9336 0.5v-22.457l2.2852 1.457c0.80859 0.51172 1.7266 0.76562 2.6484 0.76562s1.8398-0.25781 2.6484-0.76953zm-19.73 46.621c0-8.1602 6.6406-14.801 14.801-14.801 8.1602 0 14.801 6.6406 14.801 14.801 0 8.1602-6.6406 14.801-14.801 14.801-8.1602 0-14.801-6.6406-14.801-14.801zm49.332 47.289-24.695-24.695c3.4844-1.5234 6.4766-3.8789 8.9062-6.7422l15.789 15.793zm29.598 11.91h-19.734v-34.531h19.734zm73.996-157.86c0-5.4414 4.4258-9.8672 9.8672-9.8672s9.8672 4.4258 9.8672 9.8672-4.4258 9.8672-9.8672 9.8672-9.8672-4.4258-9.8672-9.8672zm-39.465 49.332h98.664v54.266l-98.664-0.003906zm24.668 310.79h-49.332v-19.734h49.332zm-29.602-88.797v-19.734h24.664v19.734zm19.734 9.8672v49.332h-14.801v-49.332zm108.53 59.199v19.734l-49.332-0.003906v-19.734zm-44.398-69.066v-19.734h24.664v19.734zm19.734 9.8672v49.332h-14.801v-49.332zm24.664-39.465h-147.99v-128.26h147.99z"/>
  <path d="m326.67 154.01c0 22.816 17.301 41.645 39.465 44.105v39.758h9.8672v-39.758c22.164-2.4609 39.465-21.293 39.465-44.105 0-2.7266-2.207-4.9336-4.9336-4.9336-17.188 0-32.09 9.832-39.465 24.148-7.3789-14.316-22.281-24.148-39.469-24.148-2.7266 0-4.9297 2.2031-4.9297 4.9336zm78.516 5.3477c-2.3047 14.77-14 26.465-28.77 28.77 2.3008-14.77 14-26.469 28.77-28.77zm-39.465 28.77c-14.77-2.3047-26.465-14-28.77-28.77 14.766 2.3008 26.465 14 28.77 28.77z"/>
  <path d="m336.54 499.33c0-2.7266-2.207-4.9336-4.9336-4.9336-17.188 0-32.09 9.832-39.465 24.148-7.375-14.316-22.277-24.145-39.465-24.145-2.7266 0-4.9336 2.207-4.9336 4.9336 0 22.816 17.301 41.645 39.465 44.105v34.824h-88.793v-34.824c22.164-2.4609 39.465-21.293 39.465-44.105 0-2.7266-2.207-4.9336-4.9336-4.9336-17.188 0-32.09 9.832-39.465 24.148-7.375-14.32-22.277-24.148-39.465-24.148-2.7266 0-4.9336 2.207-4.9336 4.9336 0 22.816 17.301 41.645 39.465 44.105v34.824h-14.801c-1.5508 0-3.0156 0.73047-3.9453 1.9727l-14.801 19.734 7.8945 5.918 13.32-17.762h231.86l13.32 17.758 7.8945-5.9141-14.801-19.734c-0.93359-1.2461-2.3984-1.9727-3.9453-1.9727h-14.801v-34.824c22.164-2.4609 39.465-21.293 39.465-44.105 0-2.7266-2.207-4.9336-4.9336-4.9336-17.188 0-32.09 9.832-39.465 24.148-7.375-14.32-22.277-24.148-39.465-24.148-2.7266 0-4.9336 2.207-4.9336 4.9336 0 22.816 17.301 41.645 39.465 44.105v34.824h-88.797v-34.824c22.164-2.4609 39.465-21.293 39.465-44.109zm-10.281 5.3477c-2.3047 14.77-14 26.465-28.77 28.77 2.3047-14.77 14-26.465 28.77-28.77zm-68.234 0c14.77 2.3047 26.465 14 28.77 28.77-14.77-2.3008-26.465-14-28.77-28.77zm-30.426 0c-2.3047 14.77-14 26.465-28.77 28.77 2.3008-14.77 14-26.465 28.77-28.77zm-68.234 0c14.77 2.3047 26.465 14 28.77 28.77-14.77-2.3008-26.469-14-28.77-28.77zm265.56 0c-2.3047 14.77-14 26.465-28.77 28.77 2.3047-14.77 14-26.465 28.77-28.77zm-68.234 0c14.77 2.3047 26.465 14 28.77 28.77-14.77-2.3008-26.465-14-28.77-28.77z"/>
  <path d="m479.6 292.14h19.734v9.8672h-19.734z"/>
  <path d="m538.79 292.14h19.734v9.8672h-19.734z"/>
  <path d="m499.33 316.8h39.465v9.8672h-39.465z"/>
  <path d="m474.66 459.86h88.797c2.7266 0 4.9336-2.207 4.9336-4.9336v-88.793c0-2.7266-2.207-4.9336-4.9336-4.9336h-88.797c-2.7266 0-4.9336 2.207-4.9336 4.9336v88.797c0 2.7266 2.207 4.9297 4.9336 4.9297zm4.9336-88.797h78.93v78.93l-78.93 0.003906z"/>
  <path d="m519.06 380.93c-16.324 0-29.598 13.273-29.598 29.598s13.273 29.598 29.598 29.598 29.598-13.273 29.598-29.598c0-16.32-13.273-29.598-29.598-29.598zm0 49.332c-10.883 0-19.734-8.8516-19.734-19.734s8.8516-19.734 19.734-19.734 19.734 8.8516 19.734 19.734c-0.003906 10.883-8.8516 19.734-19.734 19.734z"/>
 </g>
</svg>
