<?xml version="1.0" encoding="UTF-8"?>
<svg width="752pt" height="752pt" version="1.1" viewBox="0 0 752 752" xmlns="http://www.w3.org/2000/svg">
 <g fill="#21c55d">
  <path d="m223.07 198.41c0 13.621-11.043 24.664-24.664 24.664-13.625 0-24.668-11.043-24.668-24.664 0-13.625 11.043-24.668 24.668-24.668 13.621 0 24.664 11.043 24.664 24.668"/>
  <path d="m193.48 149.08h9.8672v14.801h-9.8672z"/>
  <path d="m193.48 232.94h9.8672v14.801h-9.8672z"/>
  <path d="m232.94 193.48h14.801v9.8672h-14.801z"/>
  <path d="m149.08 193.48h14.801v9.8672h-14.801z"/>
  <path d="m219.34 170.5 10.465-10.465 6.9766 6.9766-10.465 10.465z"/>
  <path d="m160.04 229.8 10.465-10.465 6.9766 6.9766-10.465 10.465z"/>
  <path d="m219.34 226.32 6.9766-6.9766 10.465 10.465-6.9766 6.9766z"/>
  <path d="m160.04 167.01 6.9766-6.9766 10.465 10.465-6.9766 6.9766z"/>
  <path d="m464.8 479.6h34.531v29.598h-34.531z"/>
  <path d="m548.66 479.6h34.531v29.598h-34.531z"/>
  <path d="m469.73 519.06h24.664v44.398h-24.664z"/>
  <path d="m553.59 519.06h24.664v44.398h-24.664z"/>
  <path d="m445.07 573.33h59.199v29.598h-59.199z"/>
  <path d="m543.73 573.33h59.199v29.598h-59.199z"/>
  <path d="m415.46 351.34h19.734v44.398h-19.734z"/>
  <path d="m311.87 247.74 44.418 28.266-0.019531 0.003906v27.723c3.0938-1.1016 6.4023-1.7266 9.8672-1.7266 3.4648 0 6.7734 0.63281 9.8672 1.7266v-27.723h-0.019531l44.414-28.27-4.9336-29.598-24.664 9.8672 4.9336 14.801-24.664 9.8672h-9.8672l-24.664-9.8672 4.9336-14.801-24.664-9.8672z"/>
  <path d="m371.07 232.94v-39.805c19.461-2.4336 34.531-19.004 34.531-39.125-20.121 0-36.691 15.07-39.125 34.531h-0.67969c-2.4297-19.461-19-34.531-39.121-34.531 0 20.121 15.07 36.691 34.531 39.125v39.805z"/>
  <path d="m183.61 553.25v29.938h-14.801l-14.801 19.734h266.39l-14.801-19.734h-14.801v-29.938c19.461-2.4336 34.531-19.004 34.531-39.125-20.121 0-36.691 15.07-39.125 34.531h-0.67969c-2.4336-19.461-19.004-34.531-39.125-34.531 0 20.121 15.07 36.691 34.531 39.125l0.003906 29.938h-88.797v-29.938c19.461-2.4336 34.531-19.004 34.531-39.125-20.121 0-36.691 15.07-39.125 34.531h-0.67969c-2.4336-19.461-19.004-34.531-39.125-34.531 0 20.121 15.07 36.691 34.531 39.125l0.003907 29.938h-88.797v-29.938c19.461-2.4336 34.531-19.004 34.531-39.125-20.121 0-36.691 15.07-39.125 34.531h-0.67969c-2.4336-19.461-19.004-34.531-39.125-34.531 0 20.121 15.07 36.691 34.531 39.125z"/>
  <path d="m469.73 257.61v64.129h108.53l0.003907-64.129h-49.332v-20.641c5.7383-2.0391 9.8672-7.457 9.8672-13.891 0-8.1758-6.625-14.801-14.801-14.801-8.1758 0-14.801 6.625-14.801 14.801 0 6.4336 4.1289 11.855 9.8672 13.891v20.641zm14.801 14.801h19.734v9.8672h-19.734zm59.195 0h19.734v9.8672h-19.734zm0 34.531h-39.465v-9.8672h39.465z"/>
  <path d="m445.07 469.73h157.86v-138.13h-157.86zm34.531-113.46h88.797v88.797h-88.797z"/>
  <path d="m553.59 400.67c0 16.348-13.25 29.598-29.598 29.598s-29.598-13.25-29.598-29.598c0-16.348 13.25-29.602 29.598-29.602s29.598 13.254 29.598 29.602"/>
  <path d="m385.87 331.6c0 10.898-8.8359 19.734-19.73 19.734-10.898 0-19.734-8.8359-19.734-19.734 0-10.895 8.8359-19.73 19.734-19.73 10.895 0 19.73 8.8359 19.73 19.73"/>
  <path d="m405.6 361.2-14.223-14.223c-3.75 6.1328-9.6445 10.812-16.66 12.941l30.883 30.879z"/>
 </g>
</svg>
