<?xml version="1.0" encoding="UTF-8"?>
<svg width="752pt" height="752pt" version="1.1" viewBox="0 0 752 752" xmlns="http://www.w3.org/2000/svg">
 <g fill="#facc15">
  <path d="m238.42 593.03c0.47656-0.054688 0.94531-0.17578 1.3906-0.36328l16.316 12.23 2.9609-3.9453-14.043-10.531 28.375-12.16h33.52c0.75 0 1.4609-0.22656 2.125-0.55078l10.758 7.1719 4.6367 9.2773c0.42578 0.83984 1.2812 1.3672 2.2148 1.3672h19.734v-4.9336h-18.207l-4.2539-8.5039c-0.19141-0.38672-0.48437-0.71094-0.83984-0.94531l-9.8398-6.5625 20.07-16.055h85.34l20.945 16.758-15.309 15.309h-8.8477v4.9336h9.8672c0.65625 0 1.2812-0.26172 1.7461-0.71875l16.754-16.754c0.40625 0.10156 0.80859 0.20703 1.2344 0.20703h33.367l23.5 11.75-8.6445 5.7773-9.8672 4.9336 2.207 4.4141 10.133-5.0859 11.246-7.5c0.52344 0.25781 1.0859 0.42578 1.668 0.48828l93.73 9.8672 1.0312-9.8125-92.836-9.7734-28.801-14.398c-0.67969-0.35156-1.4375-0.52734-2.2031-0.52734h-32.801l-23.312-18.652c-0.87891-0.70313-1.9648-1.082-3.0859-1.082h-37v-39.527c88.633-1.3281 160.33-73.789 160.33-162.73 0-2.7227-2.2109-4.9336-4.9336-4.9336-80.199 0-146.99 58.309-160.33 134.75-13.332-76.445-80.125-134.75-160.32-134.75-2.7227 0-4.9336 2.2109-4.9336 4.9336 0 88.941 71.699 161.4 160.33 162.73v39.527h-41.934c-1.1211 0-2.207 0.37891-3.082 1.082l-23.312 18.652h-32.801c-0.66406 0-1.332 0.13281-1.9453 0.39844l-33.859 14.508-88.066 9.7891 1.0898 9.8008zm295.36-241.61c-2.6016 80.348-67.484 145.23-147.83 147.83 2.6055-80.352 67.488-145.23 147.83-147.83zm-310.62 0c80.348 2.6016 145.23 67.484 147.83 147.83-80.352-2.6055-145.23-67.484-147.83-147.83z"/>
  <path d="m459.86 242.81c0 14.637 10.691 26.793 24.664 29.156l0.003906 20.172h-39.465c-2.7227 0-4.9336 2.2109-4.9336 4.9336v59.199h9.8672v-54.266h39.465c2.7227 0 4.9336-2.2109 4.9336-4.9336v-25.109c13.977-2.3594 24.664-14.512 24.664-29.156 0-16.324-13.273-29.598-29.598-29.598-16.324 0-29.602 13.277-29.602 29.602zm29.602-19.734c10.883 0 19.734 8.8516 19.734 19.734 0 10.883-8.8516 19.734-19.734 19.734-10.883 0-19.734-8.8516-19.734-19.734 0-10.883 8.8516-19.734 19.734-19.734z"/>
  <path d="m499.33 242.81c0 5.4453-4.4141 9.8633-9.8633 9.8633-5.4492 0-9.8672-4.418-9.8672-9.8633 0-5.4492 4.418-9.8672 9.8672-9.8672 5.4492 0 9.8633 4.418 9.8633 9.8672"/>
  <path d="m435.2 207.83v37.27l-27.402 18.266c-1.3711 0.91797-2.1953 2.457-2.1953 4.1055v118.39h9.8672l-0.003906-115.75 27.402-18.266c1.375-0.92188 2.1992-2.4609 2.1992-4.1094v-39.91c13.977-2.3594 24.664-14.512 24.664-29.156 0-16.324-13.273-29.598-29.598-29.598-16.324 0-29.598 13.273-29.598 29.598 0 14.641 10.688 26.797 24.664 29.16zm4.9336-48.887c10.883 0 19.734 8.8516 19.734 19.734 0 10.883-8.8516 19.734-19.734 19.734-10.883 0-19.734-8.8516-19.734-19.734 0-10.887 8.8516-19.734 19.734-19.734z"/>
  <path d="m450 178.68c0 5.4492-4.418 9.8672-9.8672 9.8672-5.4492 0-9.8672-4.418-9.8672-9.8672s4.418-9.8672 9.8672-9.8672c5.4492 0 9.8672 4.418 9.8672 9.8672"/>
  <path d="m302 207.83v34.977c0 1.5547 0.73047 3.0156 1.9727 3.9453l37.492 28.117v111h9.8672v-113.46c0-1.5547-0.73047-3.0156-1.9727-3.9453l-37.492-28.121v-32.508c13.977-2.3594 24.664-14.512 24.664-29.156 0-16.324-13.273-29.598-29.598-29.598s-29.598 13.273-29.598 29.598c0 14.637 10.688 26.793 24.664 29.156zm4.9336-48.887c10.883 0 19.734 8.8516 19.734 19.734 0 10.883-8.8516 19.734-19.734 19.734s-19.734-8.8516-19.734-19.734c0-10.887 8.8516-19.734 19.734-19.734z"/>
  <path d="m316.8 178.68c0 5.4492-4.418 9.8672-9.8672 9.8672s-9.8672-4.418-9.8672-9.8672 4.418-9.8672 9.8672-9.8672 9.8672 4.418 9.8672 9.8672"/>
  <path d="m257.61 267.03v30.043c0 2.7227 2.2109 4.9336 4.9336 4.9336h39.465v49.332h9.8672v-54.266c0-2.7227-2.2109-4.9336-4.9336-4.9336h-39.465v-25.109c13.977-2.3594 24.664-14.512 24.664-29.156 0-16.324-13.273-29.598-29.598-29.598-16.324 0-29.598 13.273-29.598 29.598 0 14.641 10.688 26.793 24.664 29.156zm4.9336-48.887c10.883 0 19.734 8.8516 19.734 19.734s-8.8516 19.734-19.734 19.734c-10.883 0-19.734-8.8516-19.734-19.734 0.003906-10.883 8.8516-19.734 19.734-19.734z"/>
  <path d="m272.41 237.88c0 5.4492-4.418 9.8633-9.8672 9.8633-5.4492 0-9.8672-4.4141-9.8672-9.8633s4.418-9.8672 9.8672-9.8672c5.4492 0 9.8672 4.418 9.8672 9.8672"/>
  <path d="m246.02 377.79 3.4102-3.5664 113.46 108.53-3.4102 3.5664z"/>
  <path d="m398.92 482.79 123.32-123.32 3.4883 3.4883-123.32 123.32z"/>
  <path d="m228.01 553.59h9.8672v9.8672h-9.8672z"/>
  <path d="m168.81 543.73h9.8672v9.8672h-9.8672z"/>
  <path d="m287.2 528.93h9.8672v9.8672h-9.8672z"/>
  <path d="m450 528.93h9.8672v9.8672h-9.8672z"/>
  <path d="m524 538.79h9.8672v9.8672h-9.8672z"/>
  <path d="m563.46 558.53h9.8672v9.8672h-9.8672z"/>
  <path d="m373.54 252.23v148.44h9.8672v-148.44c13.977-2.3594 24.664-14.512 24.664-29.156 0-16.324-13.273-29.598-29.598-29.598s-29.598 13.273-29.598 29.598c0 14.637 10.688 26.793 24.664 29.156zm4.9336-48.891c10.883 0 19.734 8.8516 19.734 19.734 0 10.883-8.8516 19.734-19.734 19.734s-19.734-8.8516-19.734-19.734c0-10.883 8.8516-19.734 19.734-19.734z"/>
  <path d="m388.34 223.07c0 5.4492-4.418 9.8672-9.8672 9.8672s-9.8672-4.418-9.8672-9.8672 4.418-9.8672 9.8672-9.8672 9.8672 4.418 9.8672 9.8672"/>
 </g>
</svg>
